<svg id="my-svg" width="100%" xmlns="http://www.w3.org/2000/svg" xmlns:xlink="http://www.w3.org/1999/xlink" class="flowchart" style="max-width: 586px; background-color: transparent;" viewBox="0 0 586 1762.90625" role="graphics-document document" aria-roledescription="flowchart-v2"><style>#my-svg{font-family:"trebuchet ms",verdana,arial,sans-serif;font-size:16px;fill:#ccc;}@keyframes edge-animation-frame{from{stroke-dashoffset:0;}}@keyframes dash{to{stroke-dashoffset:0;}}#my-svg .edge-animation-slow{stroke-dasharray:9,5!important;stroke-dashoffset:900;animation:dash 50s linear infinite;stroke-linecap:round;}#my-svg .edge-animation-fast{stroke-dasharray:9,5!important;stroke-dashoffset:900;animation:dash 20s linear infinite;stroke-linecap:round;}#my-svg .error-icon{fill:#a44141;}#my-svg .error-text{fill:#ddd;stroke:#ddd;}#my-svg .edge-thickness-normal{stroke-width:1px;}#my-svg .edge-thickness-thick{stroke-width:3.5px;}#my-svg .edge-pattern-solid{stroke-dasharray:0;}#my-svg .edge-thickness-invisible{stroke-width:0;fill:none;}#my-svg .edge-pattern-dashed{stroke-dasharray:3;}#my-svg .edge-pattern-dotted{stroke-dasharray:2;}#my-svg .marker{fill:lightgrey;stroke:lightgrey;}#my-svg .marker.cross{stroke:lightgrey;}#my-svg svg{font-family:"trebuchet ms",verdana,arial,sans-serif;font-size:16px;}#my-svg p{margin:0;}#my-svg .label{font-family:"trebuchet ms",verdana,arial,sans-serif;color:#ccc;}#my-svg .cluster-label text{fill:#F9FFFE;}#my-svg .cluster-label span{color:#F9FFFE;}#my-svg .cluster-label span p{background-color:transparent;}#my-svg .label text,#my-svg span{fill:#ccc;color:#ccc;}#my-svg .node rect,#my-svg .node circle,#my-svg .node ellipse,#my-svg .node polygon,#my-svg .node path{fill:#1f2020;stroke:#ccc;stroke-width:1px;}#my-svg .rough-node .label text,#my-svg .node .label text,#my-svg .image-shape .label,#my-svg .icon-shape .label{text-anchor:middle;}#my-svg .node .katex path{fill:#000;stroke:#000;stroke-width:1px;}#my-svg .rough-node .label,#my-svg .node .label,#my-svg .image-shape .label,#my-svg .icon-shape .label{text-align:center;}#my-svg .node.clickable{cursor:pointer;}#my-svg .root .anchor path{fill:lightgrey!important;stroke-width:0;stroke:lightgrey;}#my-svg .arrowheadPath{fill:lightgrey;}#my-svg .edgePath .path{stroke:lightgrey;stroke-width:1px;}#my-svg .flowchart-link{stroke:lightgrey;fill:none;}#my-svg .edgeLabel{background-color:hsl(0, 0%, 34.4117647059%);text-align:center;}#my-svg .edgeLabel p{background-color:hsl(0, 0%, 34.4117647059%);}#my-svg .edgeLabel rect{opacity:0.5;background-color:hsl(0, 0%, 34.4117647059%);fill:hsl(0, 0%, 34.4117647059%);}#my-svg .labelBkg{background-color:rgba(87.75, 87.75, 87.75, 0.5);}#my-svg .cluster rect{fill:hsl(180, 1.5873015873%, 28.3529411765%);stroke:rgba(255, 255, 255, 0.25);stroke-width:1px;}#my-svg .cluster text{fill:#F9FFFE;}#my-svg .cluster span{color:#F9FFFE;}#my-svg div.mermaidTooltip{position:absolute;text-align:center;max-width:200px;padding:2px;font-family:"trebuchet ms",verdana,arial,sans-serif;font-size:12px;background:hsl(20, 1.5873015873%, 12.3529411765%);border:1px solid rgba(255, 255, 255, 0.25);border-radius:2px;pointer-events:none;z-index:100;}#my-svg .flowchartTitleText{text-anchor:middle;font-size:18px;fill:#ccc;}#my-svg rect.text{fill:none;stroke-width:0;}#my-svg .icon-shape,#my-svg .image-shape{background-color:hsl(0, 0%, 34.4117647059%);text-align:center;}#my-svg .icon-shape p,#my-svg .image-shape p{background-color:hsl(0, 0%, 34.4117647059%);padding:2px;}#my-svg .icon-shape .label rect,#my-svg .image-shape .label rect{opacity:0.5;background-color:hsl(0, 0%, 34.4117647059%);fill:hsl(0, 0%, 34.4117647059%);}#my-svg .label-icon{display:inline-block;height:1em;overflow:visible;vertical-align:-0.125em;}#my-svg .node .label-icon path{fill:currentColor;stroke:revert;stroke-width:revert;}#my-svg .node .neo-node{stroke:#ccc;}#my-svg [data-look="neo"].node rect,#my-svg [data-look="neo"].cluster rect,#my-svg [data-look="neo"].node polygon{stroke:url(#my-svg-gradient);filter:drop-shadow( 1px 2px 2px rgba(185,185,185,1));}#my-svg [data-look="neo"].swimlane.cluster rect{filter:none;}#my-svg [data-look="neo"].node path{stroke:url(#my-svg-gradient);stroke-width:1px;}#my-svg [data-look="neo"].node .outer-path{filter:drop-shadow( 1px 2px 2px rgba(185,185,185,1));}#my-svg [data-look="neo"].node .neo-line path{stroke:#ccc;filter:none;}#my-svg [data-look="neo"].node circle{stroke:url(#my-svg-gradient);filter:drop-shadow( 1px 2px 2px rgba(185,185,185,1));}#my-svg [data-look="neo"].node circle .state-start{fill:#000000;}#my-svg [data-look="neo"].icon-shape .icon{fill:url(#my-svg-gradient);filter:drop-shadow( 1px 2px 2px rgba(185,185,185,1));}#my-svg [data-look="neo"].icon-shape .icon-neo path{stroke:url(#my-svg-gradient);filter:drop-shadow( 1px 2px 2px rgba(185,185,185,1));}#my-svg :root{--mermaid-font-family:"trebuchet ms",verdana,arial,sans-serif;}</style><g><marker id="my-svg_flowchart-v2-pointEnd" class="marker flowchart-v2" viewBox="0 0 10 10" refX="5" refY="5" markerUnits="userSpaceOnUse" markerWidth="8" markerHeight="8" orient="auto"><path d="M 0 0 L 10 5 L 0 10 z" class="arrowMarkerPath" style="stroke-width: 1; stroke-dasharray: 1, 0;"/></marker><marker id="my-svg_flowchart-v2-pointStart" class="marker flowchart-v2" viewBox="0 0 10 10" refX="4.5" refY="5" markerUnits="userSpaceOnUse" markerWidth="8" markerHeight="8" orient="auto"><path d="M 0 5 L 10 10 L 10 0 z" class="arrowMarkerPath" style="stroke-width: 1; stroke-dasharray: 1, 0;"/></marker><marker id="my-svg_flowchart-v2-pointEnd-margin" class="marker flowchart-v2" viewBox="0 0 11.5 14" refX="11.5" refY="7" markerUnits="userSpaceOnUse" markerWidth="10.5" markerHeight="14" orient="auto"><path d="M 0 0 L 11.5 7 L 0 14 z" class="arrowMarkerPath" style="stroke-width: 0; stroke-dasharray: 1, 0;"/></marker><marker id="my-svg_flowchart-v2-pointStart-margin" class="marker flowchart-v2" viewBox="0 0 11.5 14" refX="1" refY="7" markerUnits="userSpaceOnUse" markerWidth="11.5" markerHeight="14" orient="auto"><polygon points="0,7 11.5,14 11.5,0" class="arrowMarkerPath" style="stroke-width: 0; stroke-dasharray: 1, 0;"/></marker><marker id="my-svg_flowchart-v2-circleEnd" class="marker flowchart-v2" viewBox="0 0 10 10" refX="11" refY="5" markerUnits="userSpaceOnUse" markerWidth="11" markerHeight="11" orient="auto"><circle cx="5" cy="5" r="5" class="arrowMarkerPath" style="stroke-width: 1; stroke-dasharray: 1, 0;"/></marker><marker id="my-svg_flowchart-v2-circleStart" class="marker flowchart-v2" viewBox="0 0 10 10" refX="-1" refY="5" markerUnits="userSpaceOnUse" markerWidth="11" markerHeight="11" orient="auto"><circle cx="5" cy="5" r="5" class="arrowMarkerPath" style="stroke-width: 1; stroke-dasharray: 1, 0;"/></marker><marker id="my-svg_flowchart-v2-circleEnd-margin" class="marker flowchart-v2" viewBox="0 0 10 10" refY="5" refX="12.25" markerUnits="userSpaceOnUse" markerWidth="14" markerHeight="14" orient="auto"><circle cx="5" cy="5" r="5" class="arrowMarkerPath" style="stroke-width: 0; stroke-dasharray: 1, 0;"/></marker><marker id="my-svg_flowchart-v2-circleStart-margin" class="marker flowchart-v2" viewBox="0 0 10 10" refX="-2" refY="5" markerUnits="userSpaceOnUse" markerWidth="14" markerHeight="14" orient="auto"><circle cx="5" cy="5" r="5" class="arrowMarkerPath" style="stroke-width: 0; stroke-dasharray: 1, 0;"/></marker><marker id="my-svg_flowchart-v2-crossEnd" class="marker cross flowchart-v2" viewBox="0 0 11 11" refX="12" refY="5.2" markerUnits="userSpaceOnUse" markerWidth="11" markerHeight="11" orient="auto"><path d="M 1,1 l 9,9 M 10,1 l -9,9" class="arrowMarkerPath" style="stroke-width: 2; stroke-dasharray: 1, 0;"/></marker><marker id="my-svg_flowchart-v2-crossStart" class="marker cross flowchart-v2" viewBox="0 0 11 11" refX="-1" refY="5.2" markerUnits="userSpaceOnUse" markerWidth="11" markerHeight="11" orient="auto"><path d="M 1,1 l 9,9 M 10,1 l -9,9" class="arrowMarkerPath" style="stroke-width: 2; stroke-dasharray: 1, 0;"/></marker><marker id="my-svg_flowchart-v2-crossEnd-margin" class="marker cross flowchart-v2" viewBox="0 0 15 15" refX="17.7" refY="7.5" markerUnits="userSpaceOnUse" markerWidth="12" markerHeight="12" orient="auto"><path d="M 1,1 L 14,14 M 1,14 L 14,1" class="arrowMarkerPath" style="stroke-width: 2.5;"/></marker><marker id="my-svg_flowchart-v2-crossStart-margin" class="marker cross flowchart-v2" viewBox="0 0 15 15" refX="-3.5" refY="7.5" markerUnits="userSpaceOnUse" markerWidth="12" markerHeight="12" orient="auto"><path d="M 1,1 L 14,14 M 1,14 L 14,1" class="arrowMarkerPath" style="stroke-width: 2.5; stroke-dasharray: 1, 0;"/></marker><g class="root"><g class="clusters"><g class="cluster" id="my-svg-APPROVAL_SECTION" data-look="classic"><rect style="" x="35.5" y="600" width="505" height="544"/><g class="cluster-label" transform="translate(176.375, 600)"><foreignObject width="223.25" height="24"><div xmlns="http://www.w3.org/1999/xhtml" style="display: table-cell; white-space: nowrap; line-height: 1.5;"><span class="nodeLabel"><p>Approval sequential per section</p></span></div></foreignObject></g></g></g><g class="edgePaths"><path d="M293,62L293,66.167C293,70.333,293,78.667,293,86.333C293,94,293,101,293,104.5L293,108" id="my-svg-L_U_PRE_0" class="edge-thickness-normal edge-pattern-solid edge-thickness-normal edge-pattern-solid flowchart-link" style=";" data-edge="true" data-et="edge" data-id="L_U_PRE_0" data-points="W3sieCI6MjkzLCJ5Ijo2Mn0seyJ4IjoyOTMsInkiOjg3fSx7IngiOjI5MywieSI6MTEyfV0=" data-look="classic" marker-end="url(#my-svg_flowchart-v2-pointEnd)"/><path d="M293,190L293,194.167C293,198.333,293,206.667,293,214.333C293,222,293,229,293,232.5L293,236" id="my-svg-L_PRE_GEN_0" class="edge-thickness-normal edge-pattern-solid edge-thickness-normal edge-pattern-solid flowchart-link" style=";" data-edge="true" data-et="edge" data-id="L_PRE_GEN_0" data-points="W3sieCI6MjkzLCJ5IjoxOTB9LHsieCI6MjkzLCJ5IjoyMTV9LHsieCI6MjkzLCJ5IjoyNDB9XQ==" data-look="classic" marker-end="url(#my-svg_flowchart-v2-pointEnd)"/><path d="M293,318L293,322.167C293,326.333,293,334.667,293,342.333C293,350,293,357,293,360.5L293,364" id="my-svg-L_GEN_ATT_0" class="edge-thickness-normal edge-pattern-solid edge-thickness-normal edge-pattern-solid flowchart-link" style=";" data-edge="true" data-et="edge" data-id="L_GEN_ATT_0" data-points="W3sieCI6MjkzLCJ5IjozMTh9LHsieCI6MjkzLCJ5IjozNDN9LHsieCI6MjkzLCJ5IjozNjh9XQ==" data-look="classic" marker-end="url(#my-svg_flowchart-v2-pointEnd)"/><path d="M212.519,422L200.099,426.167C187.679,430.333,162.84,438.667,150.42,446.333C138,454,138,461,138,464.5L138,468" id="my-svg-L_ATT_S1_0" class="edge-thickness-normal edge-pattern-solid edge-thickness-normal edge-pattern-solid flowchart-link" style=";" data-edge="true" data-et="edge" data-id="L_ATT_S1_0" data-points="W3sieCI6MjEyLjUxOTIzMDc2OTIzMDc3LCJ5Ijo0MjJ9LHsieCI6MTM4LCJ5Ijo0NDd9LHsieCI6MTM4LCJ5Ijo0NzJ9XQ==" data-look="classic" marker-end="url(#my-svg_flowchart-v2-pointEnd)"/><path d="M373.481,422L385.901,426.167C398.321,430.333,423.16,438.667,435.58,446.333C448,454,448,461,448,464.5L448,468" id="my-svg-L_ATT_S2_0" class="edge-thickness-normal edge-pattern-solid edge-thickness-normal edge-pattern-solid flowchart-link" style=";" data-edge="true" data-et="edge" data-id="L_ATT_S2_0" data-points="W3sieCI6MzczLjQ4MDc2OTIzMDc2OTIsInkiOjQyMn0seyJ4Ijo0NDgsInkiOjQ0N30seyJ4Ijo0NDgsInkiOjQ3Mn1d" data-look="classic" marker-end="url(#my-svg_flowchart-v2-pointEnd)"/><path d="M293,703L293,707.167C293,711.333,293,719.667,293,727.333C293,735,293,742,293,745.5L293,749" id="my-svg-L_A1_A2_0" class="edge-thickness-normal edge-pattern-solid edge-thickness-normal edge-pattern-solid flowchart-link" style=";" data-edge="true" data-et="edge" data-id="L_A1_A2_0" data-points="W3sieCI6MjkzLCJ5Ijo3MDN9LHsieCI6MjkzLCJ5Ijo3Mjh9LHsieCI6MjkzLCJ5Ijo3NTN9XQ==" data-look="classic" marker-end="url(#my-svg_flowchart-v2-pointEnd)"/><path d="M293,807L293,811.167C293,815.333,293,823.667,293,831.333C293,839,293,846,293,849.5L293,853" id="my-svg-L_A2_A3_0" class="edge-thickness-normal edge-pattern-solid edge-thickness-normal edge-pattern-solid flowchart-link" style=";" data-edge="true" data-et="edge" data-id="L_A2_A3_0" data-points="W3sieCI6MjkzLCJ5Ijo4MDd9LHsieCI6MjkzLCJ5Ijo4MzJ9LHsieCI6MjkzLCJ5Ijo4NTd9XQ==" data-look="classic" marker-end="url(#my-svg_flowchart-v2-pointEnd)"/><path d="M293,911L293,915.167C293,919.333,293,927.667,293,935.333C293,943,293,950,293,953.5L293,957" id="my-svg-L_A3_A4_0" class="edge-thickness-normal edge-pattern-solid edge-thickness-normal edge-pattern-solid flowchart-link" style=";" data-edge="true" data-et="edge" data-id="L_A3_A4_0" data-points="W3sieCI6MjkzLCJ5Ijo5MTF9LHsieCI6MjkzLCJ5Ijo5MzZ9LHsieCI6MjkzLCJ5Ijo5NjF9XQ==" data-look="classic" marker-end="url(#my-svg_flowchart-v2-pointEnd)"/><path d="M293,1015L293,1019.167C293,1023.333,293,1031.667,293,1039.333C293,1047,293,1054,293,1057.5L293,1061" id="my-svg-L_A4_A5_0" class="edge-thickness-normal edge-pattern-solid edge-thickness-normal edge-pattern-solid flowchart-link" style=";" data-edge="true" data-et="edge" data-id="L_A4_A5_0" data-points="W3sieCI6MjkzLCJ5IjoxMDE1fSx7IngiOjI5MywieSI6MTA0MH0seyJ4IjoyOTMsInkiOjEwNjV9XQ==" data-look="classic" marker-end="url(#my-svg_flowchart-v2-pointEnd)"/><path d="M293,1119L293,1123.167C293,1127.333,293,1135.667,293,1144C293,1152.333,293,1160.667,293,1168.333C293,1176,293,1183,293,1186.5L293,1190" id="my-svg-L_A5_SEC_0" class="edge-thickness-normal edge-pattern-solid edge-thickness-normal edge-pattern-solid flowchart-link" style=";" data-edge="true" data-et="edge" data-id="L_A5_SEC_0" data-points="W3sieCI6MjkzLCJ5IjoxMTE5fSx7IngiOjI5MywieSI6MTE0NH0seyJ4IjoyOTMsInkiOjExNjl9LHsieCI6MjkzLCJ5IjoxMTk0fV0=" data-look="classic" marker-end="url(#my-svg_flowchart-v2-pointEnd)"/><path d="M293,1248L293,1252.167C293,1256.333,293,1264.667,293,1272.333C293,1280,293,1287,293,1290.5L293,1294" id="my-svg-L_SEC_ALL_0" class="edge-thickness-normal edge-pattern-solid edge-thickness-normal edge-pattern-solid flowchart-link" style=";" data-edge="true" data-et="edge" data-id="L_SEC_ALL_0" data-points="W3sieCI6MjkzLCJ5IjoxMjQ4fSx7IngiOjI5MywieSI6MTI3M30seyJ4IjoyOTMsInkiOjEyOTh9XQ==" data-look="classic" marker-end="url(#my-svg_flowchart-v2-pointEnd)"/><path d="M236.294,1481.2L222.291,1496.818C208.288,1512.435,180.283,1543.671,166.28,1564.789C152.277,1585.906,152.277,1596.906,152.277,1602.406L152.277,1607.906" id="my-svg-L_ALL_WAIT_0" class="edge-thickness-normal edge-pattern-solid edge-thickness-normal edge-pattern-solid flowchart-link" style=";" data-edge="true" data-et="edge" data-id="L_ALL_WAIT_0" data-points="W3sieCI6MjM2LjI5MzU5ODQ3NjE0OTg3LCJ5IjoxNDgxLjE5OTg0ODQ3NjE0OTh9LHsieCI6MTUyLjI3NzM0Mzc1LCJ5IjoxNTc0LjkwNjI1fSx7IngiOjE1Mi4yNzczNDM3NSwieSI6MTYxMS45MDYyNX1d" data-look="classic" marker-end="url(#my-svg_flowchart-v2-pointEnd)"/><path d="M349.706,1481.2L363.709,1496.818C377.712,1512.435,405.717,1543.671,419.72,1564.789C433.723,1585.906,433.723,1596.906,433.723,1602.406L433.723,1607.906" id="my-svg-L_ALL_INV_0" class="edge-thickness-normal edge-pattern-solid edge-thickness-normal edge-pattern-solid flowchart-link" style=";" data-edge="true" data-et="edge" data-id="L_ALL_INV_0" data-points="W3sieCI6MzQ5LjcwNjQwMTUyMzg1MDE2LCJ5IjoxNDgxLjE5OTg0ODQ3NjE0OTh9LHsieCI6NDMzLjcyMjY1NjI1LCJ5IjoxNTc0LjkwNjI1fSx7IngiOjQzMy43MjI2NTYyNSwieSI6MTYxMS45MDYyNX1d" data-look="classic" marker-end="url(#my-svg_flowchart-v2-pointEnd)"/><path d="M433.723,1665.906L433.723,1670.073C433.723,1674.24,433.723,1682.573,433.793,1690.323C433.863,1698.073,434.004,1705.24,434.074,1708.824L434.144,1712.407" id="my-svg-L_INV_PDF_0" class="edge-thickness-normal edge-pattern-solid edge-thickness-normal edge-pattern-solid flowchart-link" style=";" data-edge="true" data-et="edge" data-id="L_INV_PDF_0" data-points="W3sieCI6NDMzLjcyMjY1NjI1LCJ5IjoxNjY1LjkwNjI1fSx7IngiOjQzMy43MjI2NTYyNSwieSI6MTY5MC45MDYyNX0seyJ4Ijo0MzQuMjIyNjU2MjUsInkiOjE3MTYuNDA2MjV9XQ==" data-look="classic" marker-end="url(#my-svg_flowchart-v2-pointEnd)"/><path d="M138,550L138,554.167C138,558.333,138,566.667,138,574.333C138,582,138,589,138,592.5L138,596" id="my-svg-L_S1_APPROVAL_SECTION_0" class="edge-thickness-normal edge-pattern-solid edge-thickness-normal edge-pattern-solid flowchart-link" style=";" data-edge="true" data-et="edge" data-id="L_S1_APPROVAL_SECTION_0" data-points="W3sieCI6MTM4LCJ5Ijo1NTB9LHsieCI6MTM4LCJ5Ijo1NzV9LHsieCI6MTM4LCJ5Ijo2MDB9LHsieCI6MTk4LjU0Njg3NSwieSI6NjI1fV0=" data-look="classic" marker-end="url(#my-svg_flowchart-v2-pointEnd)"/><path d="M448,550L448,554.167C448,558.333,448,566.667,448,574.333C448,582,448,589,448,592.5L448,596" id="my-svg-L_S2_APPROVAL_SECTION_0" class="edge-thickness-normal edge-pattern-solid edge-thickness-normal edge-pattern-solid flowchart-link" style=";" data-edge="true" data-et="edge" data-id="L_S2_APPROVAL_SECTION_0" data-points="W3sieCI6NDQ4LCJ5Ijo1NTB9LHsieCI6NDQ4LCJ5Ijo1NzV9LHsieCI6NDQ4LCJ5Ijo2MDB9LHsieCI6Mzg3LjQ1MzEyNSwieSI6NjI1fV0=" data-look="classic" marker-end="url(#my-svg_flowchart-v2-pointEnd)"/></g><g class="edgeLabels"><g class="edgeLabel"><g class="label" data-id="L_U_PRE_0" transform="translate(0, 0)"><foreignObject width="0" height="0"><div xmlns="http://www.w3.org/1999/xhtml" class="labelBkg" style="display: table-cell; white-space: nowrap; line-height: 1.5; max-width: 200px; text-align: center;"><span class="edgeLabel"></span></div></foreignObject></g></g><g class="edgeLabel"><g class="label" data-id="L_PRE_GEN_0" transform="translate(0, 0)"><foreignObject width="0" height="0"><div xmlns="http://www.w3.org/1999/xhtml" class="labelBkg" style="display: table-cell; white-space: nowrap; line-height: 1.5; max-width: 200px; text-align: center;"><span class="edgeLabel"></span></div></foreignObject></g></g><g class="edgeLabel"><g class="label" data-id="L_GEN_ATT_0" transform="translate(0, 0)"><foreignObject width="0" height="0"><div xmlns="http://www.w3.org/1999/xhtml" class="labelBkg" style="display: table-cell; white-space: nowrap; line-height: 1.5; max-width: 200px; text-align: center;"><span class="edgeLabel"></span></div></foreignObject></g></g><g class="edgeLabel"><g class="label" data-id="L_ATT_S1_0" transform="translate(0, 0)"><foreignObject width="0" height="0"><div xmlns="http://www.w3.org/1999/xhtml" class="labelBkg" style="display: table-cell; white-space: nowrap; line-height: 1.5; max-width: 200px; text-align: center;"><span class="edgeLabel"></span></div></foreignObject></g></g><g class="edgeLabel"><g class="label" data-id="L_ATT_S2_0" transform="translate(0, 0)"><foreignObject width="0" height="0"><div xmlns="http://www.w3.org/1999/xhtml" class="labelBkg" style="display: table-cell; white-space: nowrap; line-height: 1.5; max-width: 200px; text-align: center;"><span class="edgeLabel"></span></div></foreignObject></g></g><g class="edgeLabel"><g class="label" data-id="L_A1_A2_0" transform="translate(0, 0)"><foreignObject width="0" height="0"><div xmlns="http://www.w3.org/1999/xhtml" class="labelBkg" style="display: table-cell; white-space: nowrap; line-height: 1.5; max-width: 200px; text-align: center;"><span class="edgeLabel"></span></div></foreignObject></g></g><g class="edgeLabel"><g class="label" data-id="L_A2_A3_0" transform="translate(0, 0)"><foreignObject width="0" height="0"><div xmlns="http://www.w3.org/1999/xhtml" class="labelBkg" style="display: table-cell; white-space: nowrap; line-height: 1.5; max-width: 200px; text-align: center;"><span class="edgeLabel"></span></div></foreignObject></g></g><g class="edgeLabel"><g class="label" data-id="L_A3_A4_0" transform="translate(0, 0)"><foreignObject width="0" height="0"><div xmlns="http://www.w3.org/1999/xhtml" class="labelBkg" style="display: table-cell; white-space: nowrap; line-height: 1.5; max-width: 200px; text-align: center;"><span class="edgeLabel"></span></div></foreignObject></g></g><g class="edgeLabel"><g class="label" data-id="L_A4_A5_0" transform="translate(0, 0)"><foreignObject width="0" height="0"><div xmlns="http://www.w3.org/1999/xhtml" class="labelBkg" style="display: table-cell; white-space: nowrap; line-height: 1.5; max-width: 200px; text-align: center;"><span class="edgeLabel"></span></div></foreignObject></g></g><g class="edgeLabel"><g class="label" data-id="L_A5_SEC_0" transform="translate(0, 0)"><foreignObject width="0" height="0"><div xmlns="http://www.w3.org/1999/xhtml" class="labelBkg" style="display: table-cell; white-space: nowrap; line-height: 1.5; max-width: 200px; text-align: center;"><span class="edgeLabel"></span></div></foreignObject></g></g><g class="edgeLabel"><g class="label" data-id="L_SEC_ALL_0" transform="translate(0, 0)"><foreignObject width="0" height="0"><div xmlns="http://www.w3.org/1999/xhtml" class="labelBkg" style="display: table-cell; white-space: nowrap; line-height: 1.5; max-width: 200px; text-align: center;"><span class="edgeLabel"></span></div></foreignObject></g></g><g class="edgeLabel" transform="translate(152.27734375, 1574.90625)"><g class="label" data-id="L_ALL_WAIT_0" transform="translate(-22.6796875, -12)"><foreignObject width="45.359375" height="24"><div xmlns="http://www.w3.org/1999/xhtml" class="labelBkg" style="display: table-cell; white-space: nowrap; line-height: 1.5; max-width: 200px; text-align: center;"><span class="edgeLabel"><p>Belum</p></span></div></foreignObject></g></g><g class="edgeLabel" transform="translate(433.72265625, 1574.90625)"><g class="label" data-id="L_ALL_INV_0" transform="translate(-9.1953125, -12)"><foreignObject width="18.390625" height="24"><div xmlns="http://www.w3.org/1999/xhtml" class="labelBkg" style="display: table-cell; white-space: nowrap; line-height: 1.5; max-width: 200px; text-align: center;"><span class="edgeLabel"><p>Ya</p></span></div></foreignObject></g></g><g class="edgeLabel"><g class="label" data-id="L_INV_PDF_0" transform="translate(0, 0)"><foreignObject width="0" height="0"><div xmlns="http://www.w3.org/1999/xhtml" class="labelBkg" style="display: table-cell; white-space: nowrap; line-height: 1.5; max-width: 200px; text-align: center;"><span class="edgeLabel"></span></div></foreignObject></g></g><g class="edgeLabel"><g class="label" data-id="L_S1_APPROVAL_SECTION_0" transform="translate(0, 0)"><foreignObject width="0" height="0"><div xmlns="http://www.w3.org/1999/xhtml" class="labelBkg" style="display: table-cell; white-space: nowrap; line-height: 1.5; max-width: 200px; text-align: center;"><span class="edgeLabel"></span></div></foreignObject></g></g><g class="edgeLabel"><g class="label" data-id="L_S2_APPROVAL_SECTION_0" transform="translate(0, 0)"><foreignObject width="0" height="0"><div xmlns="http://www.w3.org/1999/xhtml" class="labelBkg" style="display: table-cell; white-space: nowrap; line-height: 1.5; max-width: 200px; text-align: center;"><span class="edgeLabel"></span></div></foreignObject></g></g></g><g class="nodes"><g class="node default" id="my-svg-flowchart-U-0" data-look="classic" transform="translate(293, 35)"><rect class="basic label-container" style="" x="-106.4921875" y="-27" width="212.984375" height="54"/><g class="label" style="" transform="translate(-76.4921875, -12)"><rect/><foreignObject width="152.984375" height="24"><div xmlns="http://www.w3.org/1999/xhtml" style="display: table-cell; white-space: nowrap; line-height: 1.5; max-width: 200px; text-align: center;"><span class="nodeLabel"><p>User hr_ecafesedaap</p></span></div></foreignObject></g></g><g class="node default" id="my-svg-flowchart-PRE-1" data-look="classic" transform="translate(293, 151)"><rect class="basic label-container" style="" x="-130" y="-39" width="260" height="78"/><g class="label" style="" transform="translate(-100, -24)"><rect/><foreignObject width="200" height="48"><div xmlns="http://www.w3.org/1999/xhtml" style="display: table; white-space: break-spaces; line-height: 1.5; max-width: 200px; text-align: center; width: 200px;"><span class="nodeLabel"><p>Preview aggregasi via GaStockEcafeIntegration</p></span></div></foreignObject></g></g><g class="node default" id="my-svg-flowchart-GEN-3" data-look="classic" transform="translate(293, 279)"><rect class="basic label-container" style="" x="-130" y="-39" width="260" height="78"/><g class="label" style="" transform="translate(-100, -24)"><rect/><foreignObject width="200" height="48"><div xmlns="http://www.w3.org/1999/xhtml" style="display: table; white-space: break-spaces; line-height: 1.5; max-width: 200px; text-align: center; width: 200px;"><span class="nodeLabel"><p>Generate invoice + 2 sections</p></span></div></foreignObject></g></g><g class="node default" id="my-svg-flowchart-ATT-5" data-look="classic" transform="translate(293, 395)"><rect class="basic label-container" style="" x="-122.0546875" y="-27" width="244.109375" height="54"/><g class="label" style="" transform="translate(-92.0546875, -12)"><rect/><foreignObject width="184.109375" height="24"><div xmlns="http://www.w3.org/1999/xhtml" style="display: table-cell; white-space: nowrap; line-height: 1.5; max-width: 200px; text-align: center;"><span class="nodeLabel"><p>Upload lampiran FilePond</p></span></div></foreignObject></g></g><g class="node default" id="my-svg-flowchart-S1-7" data-look="classic" transform="translate(138, 511)"><rect class="basic label-container" style="" x="-130" y="-39" width="260" height="78"/><g class="label" style="" transform="translate(-100, -24)"><rect/><foreignObject width="200" height="48"><div xmlns="http://www.w3.org/1999/xhtml" style="display: table; white-space: break-spaces; line-height: 1.5; max-width: 200px; text-align: center; width: 200px;"><span class="nodeLabel"><p>Section Makan &amp; Frozen → 5 slots</p></span></div></foreignObject></g></g><g class="node default" id="my-svg-flowchart-S2-9" data-look="classic" transform="translate(448, 511)"><rect class="basic label-container" style="" x="-130" y="-39" width="260" height="78"/><g class="label" style="" transform="translate(-100, -24)"><rect/><foreignObject width="200" height="48"><div xmlns="http://www.w3.org/1999/xhtml" style="display: table; white-space: break-spaces; line-height: 1.5; max-width: 200px; text-align: center; width: 200px;"><span class="nodeLabel"><p>Section Scan Produk → 5 slots</p></span></div></foreignObject></g></g><g class="node default" id="my-svg-flowchart-A1-10" data-look="classic" transform="translate(293, 664)"><rect class="basic label-container" style="" x="-130" y="-39" width="260" height="78"/><g class="label" style="" transform="translate(-100, -24)"><rect/><foreignObject width="200" height="48"><div xmlns="http://www.w3.org/1999/xhtml" style="display: table; white-space: break-spaces; line-height: 1.5; max-width: 200px; text-align: center; width: 200px;"><span class="nodeLabel"><p>Slot 1 tanda tangan + email next</p></span></div></foreignObject></g></g><g class="node default" id="my-svg-flowchart-A2-11" data-look="classic" transform="translate(293, 780)"><rect class="basic label-container" style="" x="-50.4609375" y="-27" width="100.921875" height="54"/><g class="label" style="" transform="translate(-20.4609375, -12)"><rect/><foreignObject width="40.921875" height="24"><div xmlns="http://www.w3.org/1999/xhtml" style="display: table-cell; white-space: nowrap; line-height: 1.5; max-width: 200px; text-align: center;"><span class="nodeLabel"><p>Slot 2</p></span></div></foreignObject></g></g><g class="node default" id="my-svg-flowchart-A3-12" data-look="classic" transform="translate(293, 884)"><rect class="basic label-container" style="" x="-50.4609375" y="-27" width="100.921875" height="54"/><g class="label" style="" transform="translate(-20.4609375, -12)"><rect/><foreignObject width="40.921875" height="24"><div xmlns="http://www.w3.org/1999/xhtml" style="display: table-cell; white-space: nowrap; line-height: 1.5; max-width: 200px; text-align: center;"><span class="nodeLabel"><p>Slot 3</p></span></div></foreignObject></g></g><g class="node default" id="my-svg-flowchart-A4-13" data-look="classic" transform="translate(293, 988)"><rect class="basic label-container" style="" x="-50.4609375" y="-27" width="100.921875" height="54"/><g class="label" style="" transform="translate(-20.4609375, -12)"><rect/><foreignObject width="40.921875" height="24"><div xmlns="http://www.w3.org/1999/xhtml" style="display: table-cell; white-space: nowrap; line-height: 1.5; max-width: 200px; text-align: center;"><span class="nodeLabel"><p>Slot 4</p></span></div></foreignObject></g></g><g class="node default" id="my-svg-flowchart-A5-14" data-look="classic" transform="translate(293, 1092)"><rect class="basic label-container" style="" x="-50.4609375" y="-27" width="100.921875" height="54"/><g class="label" style="" transform="translate(-20.4609375, -12)"><rect/><foreignObject width="40.921875" height="24"><div xmlns="http://www.w3.org/1999/xhtml" style="display: table-cell; white-space: nowrap; line-height: 1.5; max-width: 200px; text-align: center;"><span class="nodeLabel"><p>Slot 5</p></span></div></foreignObject></g></g><g class="node default" id="my-svg-flowchart-SEC-25" data-look="classic" transform="translate(293, 1221)"><rect class="basic label-container" style="" x="-122.7265625" y="-27" width="245.453125" height="54"/><g class="label" style="" transform="translate(-92.7265625, -12)"><rect/><foreignObject width="185.453125" height="24"><div xmlns="http://www.w3.org/1999/xhtml" style="display: table-cell; white-space: nowrap; line-height: 1.5; max-width: 200px; text-align: center;"><span class="nodeLabel"><p>Section status = approved</p></span></div></foreignObject></g></g><g class="node default" id="my-svg-flowchart-ALL-27" data-look="classic" transform="translate(293, 1417.953125)"><polygon points="119.953125,0 239.90625,-119.953125 119.953125,-239.90625 0,-119.953125" class="label-container" transform="translate(-119.453125, 119.953125)"/><g class="label" style="" transform="translate(-92.953125, -12)"><rect/><foreignObject width="185.90625" height="24"><div xmlns="http://www.w3.org/1999/xhtml" style="display: table-cell; white-space: nowrap; line-height: 1.5; max-width: 200px; text-align: center;"><span class="nodeLabel"><p>Semua section approved?</p></span></div></foreignObject></g></g><g class="node default" id="my-svg-flowchart-WAIT-29" data-look="classic" transform="translate(152.27734375, 1638.90625)"><rect class="basic label-container" style="" x="-110.0546875" y="-27" width="220.109375" height="54"/><g class="label" style="" transform="translate(-80.0546875, -12)"><rect/><foreignObject width="160.109375" height="24"><div xmlns="http://www.w3.org/1999/xhtml" style="display: table-cell; white-space: nowrap; line-height: 1.5; max-width: 200px; text-align: center;"><span class="nodeLabel"><p>Menunggu section lain</p></span></div></foreignObject></g></g><g class="node default" id="my-svg-flowchart-INV-31" data-look="classic" transform="translate(433.72265625, 1638.90625)"><rect class="basic label-container" style="" x="-121.390625" y="-27" width="242.78125" height="54"/><g class="label" style="" transform="translate(-91.390625, -12)"><rect/><foreignObject width="182.78125" height="24"><div xmlns="http://www.w3.org/1999/xhtml" style="display: table-cell; white-space: nowrap; line-height: 1.5; max-width: 200px; text-align: center;"><span class="nodeLabel"><p>Invoice status = approved</p></span></div></foreignObject></g></g><g class="node default" id="my-svg-flowchart-PDF-33" data-look="classic" transform="translate(433.72265625, 1735.40625)"><g class="basic label-container outer-path"><path d="M-25.7734375 -19.5 C-14.65519901536149 -19.5, -3.536960530722979 -19.5, 25.7734375 -19.5 C25.7734375 -19.5, 25.7734375 -19.5, 25.7734375 -19.5 C26.214397129342856 -19.485859282962824, 26.655356758685713 -19.47171856592565, 27.0228067896239 -19.45993515863156 C27.34118772793313 -19.429221332421967, 27.659568666242354 -19.398507506212376, 28.267042152847864 -19.3399052695533 C28.65011538917724 -19.27797295948088, 29.033188625506618 -19.216040649408466, 29.50103075967676 -19.140403561325776 C29.900615374051807 -19.049200980627965, 30.300199988426858 -18.957998399930155, 30.71970188623539 -18.862249829261074 C31.049696456663202 -18.764309172934947, 31.379691027091017 -18.66636851660882, 31.918047751460602 -18.50658706670804 C32.327537031585194 -18.355891226344777, 32.73702631170979 -18.20519538598152, 33.0911440951478 -18.074876768247425 C33.3316366717061 -17.968417838563877, 33.5721292482644 -17.861958908880332, 34.23417041279238 -17.568892924097174 C34.51158646030633 -17.424165149802604, 34.78900250782029 -17.27943737550803, 35.34242976407678 -16.990714730406097 C35.6424396639137 -16.80884696607109, 35.94244956375062 -16.626979201736084, 36.4113680736057 -16.342718045390892 C36.68844535466766 -16.14944092860425, 36.96552263572962 -15.956163811817607, 37.43659284457871 -15.627565626425154 C37.781311981713095 -15.352661287921979, 38.12603111884748 -15.077756949418804, 38.413891208501866 -14.848196188198123 C38.660020510997676 -14.624668067895914, 38.906149813493485 -14.401139947593707, 39.33924723676799 -14.007812326905688 C39.58804756675085 -13.750905559311398, 39.836847896733715 -13.49399879171711, 40.20885844296865 -13.10986736009568 C40.45571464874082 -12.819896014279658, 40.702570854513 -12.529924668463636, 41.01915140812658 -12.158051136245305 C41.27475444255691 -11.815566356024137, 41.53035747698724 -11.473081575802969, 41.766796464640635 -11.156274872382312 C41.905703128918574 -10.94287693438931, 42.044609793196514 -10.72947899639631, 42.44872137860425 -10.108655082055241 C42.67002626601415 -9.715705844909108, 42.89133115342405 -9.322756607762974, 43.062123974273504 -9.019496659696287 C43.27257753023924 -8.582485347748701, 43.483031086204974 -8.145474035801113, 43.60448364880834 -7.893275190886684 C43.78345163511023 -7.451220804610389, 43.962419621412124 -7.009166418334094, 44.073571729970325 -6.734618561215508 C44.19941929570759 -6.355585744301459, 44.32526686144487 -5.976552927387409, 44.46746063421488 -5.548287939305138 C44.58728106987066 -5.091360687644322, 44.70710150552645 -4.634433435983507, 44.78453178754556 -4.339158212148133 C44.84609873150901 -4.02302496707402, 44.907665675472465 -3.7068917219999076, 45.023482276581774 -3.1121979531509023 C45.0802944672511 -2.6715738211556013, 45.13710665792043 -2.2309496891603002, 45.18333020250937 -1.872449005199798 C45.20213651145389 -1.579525563209525, 45.22094282039841 -1.2866021212192522, 45.26341871591342 -0.6250057626472757 C45.26341871591342 -0.34693490203403715, 45.26341871591342 -0.0688640414207986, 45.26341871591342 0.625005762647271 C45.2466047375301 0.8868970479665577, 45.22979075914677 1.1487883332858444, 45.18333020250937 1.8724490051997846 C45.12827426536275 2.2994519816844545, 45.07321832821613 2.726454958169124, 45.023482276581774 3.1121979531508885 C44.968404660138745 3.3950098729274916, 44.913327043695716 3.6778217927040946, 44.78453178754556 4.339158212148129 C44.69115850722742 4.695230998236881, 44.59778522690928 5.051303784325634, 44.46746063421489 5.548287939305125 C44.31626868601305 6.003653998123474, 44.16507673781122 6.459020056941823, 44.073571729970325 6.734618561215495 C43.95967069286559 7.015956324990931, 43.84576965576086 7.297294088766367, 43.60448364880834 7.893275190886679 C43.40518615358666 8.307120703997766, 43.20588865836499 8.720966217108854, 43.062123974273504 9.019496659696284 C42.87231983517343 9.356513128421668, 42.68251569607335 9.693529597147052, 42.44872137860425 10.108655082055236 C42.18405848775299 10.515248354339967, 41.91939559690174 10.9218416266247, 41.76679646464064 11.156274872382301 C41.600255958072836 11.379423979030895, 41.43371545150503 11.602573085679488, 41.01915140812658 12.158051136245302 C40.81274817619332 12.400504117150724, 40.60634494426005 12.642957098056147, 40.20885844296866 13.10986736009567 C39.99185998509269 13.333936083757337, 39.774861527216714 13.558004807419003, 39.33924723676799 14.007812326905684 C38.984792941313714 14.329718339690514, 38.630338645859446 14.651624352475345, 38.41389120850189 14.848196188198111 C38.04694791825432 15.140823697399501, 37.68000462800674 15.433451206600893, 37.43659284457871 15.627565626425152 C37.048086431213285 15.898570882217303, 36.65958001784786 16.169576138009454, 36.41136807360571 16.34271804539089 C36.09583981809563 16.53399312813095, 35.780311562585545 16.725268210871004, 35.34242976407678 16.990714730406093 C34.93920960338966 17.201074429961725, 34.535989442702544 17.411434129517357, 34.23417041279239 17.56889292409717 C33.86149494058368 17.733865300618866, 33.48881946837498 17.898837677140563, 33.091144095147804 18.07487676824742 C32.62964421036492 18.24471299190569, 32.16814432558204 18.414549215563962, 31.918047751460616 18.506587066708033 C31.633101752961753 18.591157543350427, 31.348155754462894 18.675728019992825, 30.719701886235413 18.86224982926107 C30.464954297710143 18.92039430395859, 30.21020670918487 18.97853877865611, 29.501030759676766 19.140403561325773 C29.191140756910922 19.19050417374009, 28.88125075414508 19.24060478615441, 28.26704215284788 19.3399052695533 C27.928579512203278 19.372556353435403, 27.59011687155868 19.405207437317507, 27.0228067896239 19.45993515863156 C26.54310704739566 19.47531819568591, 26.06340730516742 19.490701232740268, 25.773437500000004 19.5 C25.773437500000004 19.5, 25.773437500000004 19.5, 25.7734375 19.5 C7.398405529876872 19.5, -10.976626440246257 19.5, -25.773437499999996 19.5 C-26.22157732355907 19.48562902810971, -26.66971714711815 19.471258056219423, -27.022806789623893 19.45993515863156 C-27.306638514148656 19.432554253524245, -27.59047023867342 19.405173348416934, -28.26704215284787 19.3399052695533 C-28.6877070794988 19.271895426517606, -29.10837200614973 19.20388558348191, -29.50103075967676 19.140403561325773 C-29.799045137715968 19.072383724263883, -30.097059515755173 19.004363887201997, -30.719701886235388 18.862249829261074 C-31.038793940648592 18.767544982459608, -31.3578859950618 18.67284013565814, -31.91804775146059 18.506587066708043 C-32.32558832465738 18.356608368507864, -32.73312889785417 18.20662967030768, -33.0911440951478 18.074876768247425 C-33.36084571765477 17.955487860377964, -33.63054734016173 17.836098952508507, -34.23417041279238 17.568892924097174 C-34.59978146612316 17.37815387175956, -34.96539251945395 17.18741481942195, -35.34242976407678 16.990714730406097 C-35.627436344112326 16.817942066703978, -35.91244292414786 16.64516940300186, -36.411368073605686 16.3427180453909 C-36.79320655431407 16.076364050770156, -37.17504503502244 15.810010056149412, -37.43659284457871 15.627565626425156 C-37.70514619658335 15.413401474706289, -37.97369954858798 15.199237322987424, -38.413891208501866 14.848196188198125 C-38.72668576699575 14.564124446264481, -39.039480325489635 14.280052704330837, -39.339247236767974 14.007812326905697 C-39.54553929639299 13.794798838449793, -39.751831356018 13.581785349993892, -40.208858442968655 13.109867360095677 C-40.45926286661237 12.815728075668426, -40.70966729025608 12.521588791241173, -41.019151408126575 12.158051136245307 C-41.31082964264642 11.76722887442253, -41.60250787716626 11.376406612599755, -41.766796464640635 11.156274872382316 C-41.980497812081964 10.827972215865726, -42.1941991595233 10.499669559349138, -42.44872137860425 10.108655082055249 C-42.6898397266187 9.680525039275281, -42.93095807463315 9.252394996495314, -43.062123974273504 9.019496659696289 C-43.236178777390975 8.658068136846675, -43.41023358050845 8.29663961399706, -43.60448364880834 7.893275190886686 C-43.769869854289496 7.484768065823481, -43.935256059770644 7.076260940760276, -44.073571729970325 6.73461856121551 C-44.22458627533719 6.27978681147078, -44.37560082070406 5.824955061726051, -44.46746063421488 5.5482879393051325 C-44.574431356989614 5.140362211960572, -44.68140207976434 4.732436484616013, -44.78453178754556 4.339158212148136 C-44.87608406788776 3.8690566021722543, -44.96763634822995 3.398954992196373, -45.023482276581774 3.112197953150904 C-45.07152225359249 2.7396093780222426, -45.119562230603215 2.367020802893581, -45.18333020250937 1.872449005199809 C-45.20813674893289 1.486067021169668, -45.2329432953564 1.099685037139527, -45.26341871591342 0.6250057626472781 C-45.26341871591342 0.32485070304784924, -45.26341871591342 0.024695643448420346, -45.26341871591342 -0.6250057626472687 C-45.23553439127137 -1.059326626768871, -45.20765006662933 -1.4936474908904733, -45.18333020250937 -1.8724490051997822 C-45.13034870504797 -2.2833630371303135, -45.077367207586576 -2.694277069060845, -45.023482276581774 -3.112197953150895 C-44.97369182487818 -3.3678613994331443, -44.923901373174594 -3.6235248457153935, -44.78453178754556 -4.339158212148126 C-44.65834986811342 -4.820344558532698, -44.532167948681284 -5.3015309049172705, -44.46746063421489 -5.548287939305123 C-44.35732629472934 -5.879995022311587, -44.2471919552438 -6.211702105318051, -44.07357172997033 -6.734618561215485 C-43.89135356700054 -7.184700946699384, -43.70913540403075 -7.634783332183283, -43.60448364880834 -7.893275190886676 C-43.43302551134074 -8.249311681954604, -43.26156737387313 -8.60534817302253, -43.062123974273504 -9.019496659696282 C-42.91569227965062 -9.279500961316165, -42.76926058502774 -9.539505262936048, -42.44872137860425 -10.108655082055243 C-42.24971233931434 -10.41438640781409, -42.05070330002444 -10.720117733572938, -41.76679646464064 -11.156274872382308 C-41.503634571659084 -11.508887834435948, -41.24047267867752 -11.861500796489587, -41.01915140812659 -12.158051136245302 C-40.80159140917775 -12.413609490525237, -40.584031410228924 -12.669167844805173, -40.20885844296866 -13.10986736009567 C-39.96090642554403 -13.365898175325821, -39.71295440811941 -13.621928990555974, -39.339247236767996 -14.007812326905677 C-39.047023656470316 -14.273202050719789, -38.75480007617263 -14.538591774533899, -38.41389120850189 -14.848196188198107 C-38.21262994634437 -15.00869668898161, -38.01136868418686 -15.16919718976511, -37.43659284457872 -15.627565626425149 C-37.05411753556051 -15.894363844906982, -36.67164222654229 -16.161162063388815, -36.411368073605715 -16.342718045390885 C-36.142568972522966 -16.505665640106105, -35.87376987144021 -16.668613234821322, -35.34242976407679 -16.99071473040609 C-35.00254436521336 -17.168032725286157, -34.66265896634992 -17.34535072016622, -34.23417041279239 -17.56889292409717 C-33.88504668827338 -17.723439640554414, -33.535922963754366 -17.877986357011654, -33.091144095147804 -18.07487676824742 C-32.633999023232725 -18.243110380514892, -32.176853951317646 -18.41134399278236, -31.91804775146062 -18.506587066708033 C-31.518796304657442 -18.625082800405607, -31.11954485785426 -18.74357853410318, -30.719701886235413 -18.862249829261067 C-30.393701728358664 -18.936657237946594, -30.067701570481915 -19.01106464663212, -29.501030759676766 -19.140403561325773 C-29.220997191982597 -19.185677216857815, -28.940963624288432 -19.230950872389855, -28.267042152847882 -19.3399052695533 C-27.83983455184591 -19.381117473029647, -27.41262695084394 -19.422329676506, -27.022806789623903 -19.45993515863156 C-26.742449607304636 -19.468925667786387, -26.462092424985368 -19.477916176941214, -25.773437500000007 -19.5 C-25.773437500000004 -19.5, -25.773437500000004 -19.5, -25.7734375 -19.5" stroke="none" stroke-width="0" fill="#1f2020" style=""/><path d="M-25.7734375 -19.5 C-10.763284356229914 -19.5, 4.246868787540173 -19.5, 25.7734375 -19.5 M-25.7734375 -19.5 C-9.90239621707319 -19.5, 5.968645065853622 -19.5, 25.7734375 -19.5 M25.7734375 -19.5 C25.7734375 -19.5, 25.7734375 -19.5, 25.7734375 -19.5 M25.7734375 -19.5 C25.7734375 -19.5, 25.7734375 -19.5, 25.7734375 -19.5 M25.7734375 -19.5 C26.253691490476367 -19.484599189283106, 26.733945480952734 -19.469198378566215, 27.0228067896239 -19.45993515863156 M25.7734375 -19.5 C26.153915901282996 -19.487798798227136, 26.534394302565993 -19.47559759645427, 27.0228067896239 -19.45993515863156 M27.0228067896239 -19.45993515863156 C27.273246989787335 -19.4357754937202, 27.523687189950774 -19.41161582880884, 28.267042152847864 -19.3399052695533 M27.0228067896239 -19.45993515863156 C27.425956548960436 -19.421043786206887, 27.82910630829697 -19.38215241378221, 28.267042152847864 -19.3399052695533 M28.267042152847864 -19.3399052695533 C28.554902008235324 -19.293366320520775, 28.84276186362278 -19.24682737148825, 29.50103075967676 -19.140403561325776 M28.267042152847864 -19.3399052695533 C28.640786344962326 -19.27948120700173, 29.014530537076787 -19.219057144450165, 29.50103075967676 -19.140403561325776 M29.50103075967676 -19.140403561325776 C29.852347526091645 -19.06021780194773, 30.203664292506527 -18.980032042569682, 30.71970188623539 -18.862249829261074 M29.50103075967676 -19.140403561325776 C29.94333098276069 -19.039451421685563, 30.385631205844618 -18.938499282045345, 30.71970188623539 -18.862249829261074 M30.71970188623539 -18.862249829261074 C31.03923829563178 -18.767413100233068, 31.358774705028168 -18.672576371205057, 31.918047751460602 -18.50658706670804 M30.71970188623539 -18.862249829261074 C31.089643589396843 -18.75245307362638, 31.45958529255829 -18.64265631799169, 31.918047751460602 -18.50658706670804 M31.918047751460602 -18.50658706670804 C32.3849647322793 -18.334757301633502, 32.851881713098 -18.162927536558964, 33.0911440951478 -18.074876768247425 M31.918047751460602 -18.50658706670804 C32.342187871899384 -18.350499581678275, 32.76632799233816 -18.19441209664851, 33.0911440951478 -18.074876768247425 M33.0911440951478 -18.074876768247425 C33.42875218117128 -17.925427683352876, 33.766360267194756 -17.775978598458327, 34.23417041279238 -17.568892924097174 M33.0911440951478 -18.074876768247425 C33.3950669855977 -17.940339120197475, 33.6989898760476 -17.805801472147525, 34.23417041279238 -17.568892924097174 M34.23417041279238 -17.568892924097174 C34.51966039485707 -17.419952983319085, 34.805150376921766 -17.271013042540996, 35.34242976407678 -16.990714730406097 M34.23417041279238 -17.568892924097174 C34.4944826612458 -17.43308819081698, 34.754794909699214 -17.297283457536786, 35.34242976407678 -16.990714730406097 M35.34242976407678 -16.990714730406097 C35.622670517681904 -16.820831138693205, 35.90291127128702 -16.650947546980316, 36.4113680736057 -16.342718045390892 M35.34242976407678 -16.990714730406097 C35.579265240041366 -16.847143673076623, 35.81610071600595 -16.70357261574715, 36.4113680736057 -16.342718045390892 M36.4113680736057 -16.342718045390892 C36.79458263163832 -16.075404158798182, 37.17779718967095 -15.808090272205472, 37.43659284457871 -15.627565626425154 M36.4113680736057 -16.342718045390892 C36.68796545887552 -16.149775683134497, 36.96456284414533 -15.9568333208781, 37.43659284457871 -15.627565626425154 M37.43659284457871 -15.627565626425154 C37.712687934426626 -15.407387139470346, 37.98878302427454 -15.187208652515539, 38.413891208501866 -14.848196188198123 M37.43659284457871 -15.627565626425154 C37.65186722610527 -15.45589003584961, 37.867141607631815 -15.284214445274065, 38.413891208501866 -14.848196188198123 M38.413891208501866 -14.848196188198123 C38.6982912761615 -14.589911571563091, 38.98269134382113 -14.331626954928058, 39.33924723676799 -14.007812326905688 M38.413891208501866 -14.848196188198123 C38.734961581983185 -14.556608570058957, 39.05603195546451 -14.26502095191979, 39.33924723676799 -14.007812326905688 M39.33924723676799 -14.007812326905688 C39.6683434364776 -13.667993481405025, 39.99743963618721 -13.328174635904363, 40.20885844296865 -13.10986736009568 M39.33924723676799 -14.007812326905688 C39.62145241420236 -13.71641231172874, 39.90365759163672 -13.425012296551794, 40.20885844296865 -13.10986736009568 M40.20885844296865 -13.10986736009568 C40.438276455754256 -12.840379908022967, 40.667694468539864 -12.570892455950252, 41.01915140812658 -12.158051136245305 M40.20885844296865 -13.10986736009568 C40.45414445444987 -12.821740453840397, 40.699430465931094 -12.533613547585112, 41.01915140812658 -12.158051136245305 M41.01915140812658 -12.158051136245305 C41.216496294487975 -11.893626967010041, 41.41384118084936 -11.629202797774777, 41.766796464640635 -11.156274872382312 M41.01915140812658 -12.158051136245305 C41.23006370708693 -11.875447870144157, 41.44097600604727 -11.59284460404301, 41.766796464640635 -11.156274872382312 M41.766796464640635 -11.156274872382312 C41.98702774078976 -10.817940491839174, 42.20725901693889 -10.479606111296034, 42.44872137860425 -10.108655082055241 M41.766796464640635 -11.156274872382312 C41.970642992336266 -10.84311186538475, 42.1744895200319 -10.529948858387188, 42.44872137860425 -10.108655082055241 M42.44872137860425 -10.108655082055241 C42.57650039883468 -9.881770492607243, 42.704279419065124 -9.654885903159244, 43.062123974273504 -9.019496659696287 M42.44872137860425 -10.108655082055241 C42.58683151751724 -9.863426545247162, 42.72494165643023 -9.61819800843908, 43.062123974273504 -9.019496659696287 M43.062123974273504 -9.019496659696287 C43.22913607483523 -8.672692459393373, 43.39614817539695 -8.325888259090458, 43.60448364880834 -7.893275190886684 M43.062123974273504 -9.019496659696287 C43.245185211897955 -8.639366082886095, 43.42824644952241 -8.259235506075905, 43.60448364880834 -7.893275190886684 M43.60448364880834 -7.893275190886684 C43.72367962020261 -7.598858837045509, 43.84287559159688 -7.304442483204333, 44.073571729970325 -6.734618561215508 M43.60448364880834 -7.893275190886684 C43.782274082356956 -7.45412938267742, 43.960064515905565 -7.014983574468156, 44.073571729970325 -6.734618561215508 M44.073571729970325 -6.734618561215508 C44.2266670825785 -6.273519751591567, 44.37976243518668 -5.812420941967626, 44.46746063421488 -5.548287939305138 M44.073571729970325 -6.734618561215508 C44.17322642086686 -6.434474510053891, 44.2728811117634 -6.134330458892274, 44.46746063421488 -5.548287939305138 M44.46746063421488 -5.548287939305138 C44.58108914422131 -5.114973183742858, 44.694717654227745 -4.681658428180578, 44.78453178754556 -4.339158212148133 M44.46746063421488 -5.548287939305138 C44.579990397072976 -5.119163182819484, 44.69252015993108 -4.69003842633383, 44.78453178754556 -4.339158212148133 M44.78453178754556 -4.339158212148133 C44.84464769804378 -4.030475717241955, 44.904763608542 -3.7217932223357764, 45.023482276581774 -3.1121979531509023 M44.78453178754556 -4.339158212148133 C44.87015906391608 -3.899480245316785, 44.9557863402866 -3.459802278485437, 45.023482276581774 -3.1121979531509023 M45.023482276581774 -3.1121979531509023 C45.08019330054352 -2.6723584501619873, 45.13690432450526 -2.2325189471730726, 45.18333020250937 -1.872449005199798 M45.023482276581774 -3.1121979531509023 C45.085701689416126 -2.6296364738204443, 45.14792110225048 -2.1470749944899863, 45.18333020250937 -1.872449005199798 M45.18333020250937 -1.872449005199798 C45.21405208613561 -1.3939308694629053, 45.24477396976186 -0.9154127337260125, 45.26341871591342 -0.6250057626472757 M45.18333020250937 -1.872449005199798 C45.21155388591989 -1.432842354333742, 45.23977756933041 -0.9932357034676862, 45.26341871591342 -0.6250057626472757 M45.26341871591342 -0.6250057626472757 C45.26341871591342 -0.14269240918512854, 45.26341871591342 0.3396209442770186, 45.26341871591342 0.625005762647271 M45.26341871591342 -0.6250057626472757 C45.26341871591342 -0.25343076359673977, 45.26341871591342 0.11814423545379615, 45.26341871591342 0.625005762647271 M45.26341871591342 0.625005762647271 C45.23724618823399 1.032664007338504, 45.211073660554554 1.4403222520297372, 45.18333020250937 1.8724490051997846 M45.26341871591342 0.625005762647271 C45.23865014020388 1.0107963221577987, 45.213881564494336 1.3965868816683262, 45.18333020250937 1.8724490051997846 M45.18333020250937 1.8724490051997846 C45.13378247702646 2.2567313797401587, 45.08423475154355 2.641013754280533, 45.023482276581774 3.1121979531508885 M45.18333020250937 1.8724490051997846 C45.13630127407482 2.2371960872258114, 45.08927234564027 2.6019431692518378, 45.023482276581774 3.1121979531508885 M45.023482276581774 3.1121979531508885 C44.961594773919515 3.4299771993932646, 44.89970727125726 3.747756445635641, 44.78453178754556 4.339158212148129 M45.023482276581774 3.1121979531508885 C44.93428455690082 3.5702093917678615, 44.84508683721987 4.028220830384834, 44.78453178754556 4.339158212148129 M44.78453178754556 4.339158212148129 C44.659925993052994 4.814334111041234, 44.53532019856043 5.289510009934339, 44.46746063421489 5.548287939305125 M44.78453178754556 4.339158212148129 C44.698646426120696 4.6666763182122555, 44.612761064695825 4.994194424276382, 44.46746063421489 5.548287939305125 M44.46746063421489 5.548287939305125 C44.334898823911665 5.9475429910822255, 44.20233701360844 6.346798042859326, 44.073571729970325 6.734618561215495 M44.46746063421489 5.548287939305125 C44.34116036285997 5.928684233410673, 44.21486009150505 6.30908052751622, 44.073571729970325 6.734618561215495 M44.073571729970325 6.734618561215495 C43.9718421784338 6.98589252031778, 43.87011262689728 7.237166479420065, 43.60448364880834 7.893275190886679 M44.073571729970325 6.734618561215495 C43.907113824282014 7.145772806510296, 43.7406559185937 7.556927051805097, 43.60448364880834 7.893275190886679 M43.60448364880834 7.893275190886679 C43.39516619977211 8.327927352486341, 43.18584875073589 8.762579514086005, 43.062123974273504 9.019496659696284 M43.60448364880834 7.893275190886679 C43.41015953881017 8.296793363167753, 43.21583542881201 8.700311535448828, 43.062123974273504 9.019496659696284 M43.062123974273504 9.019496659696284 C42.8354651123228 9.421952420788328, 42.60880625037209 9.82440818188037, 42.44872137860425 10.108655082055236 M43.062123974273504 9.019496659696284 C42.90191754789853 9.303959392384845, 42.74171112152355 9.588422125073407, 42.44872137860425 10.108655082055236 M42.44872137860425 10.108655082055236 C42.29682368815795 10.342010724821806, 42.14492599771165 10.575366367588375, 41.76679646464064 11.156274872382301 M42.44872137860425 10.108655082055236 C42.256502466544944 10.403954948983415, 42.06428355448564 10.699254815911592, 41.76679646464064 11.156274872382301 M41.76679646464064 11.156274872382301 C41.6116820748435 11.364114023498853, 41.45656768504636 11.571953174615407, 41.01915140812658 12.158051136245302 M41.76679646464064 11.156274872382301 C41.52545726635553 11.479647411631081, 41.28411806807042 11.803019950879861, 41.01915140812658 12.158051136245302 M41.01915140812658 12.158051136245302 C40.7405016571365 12.485368989378255, 40.461851906146414 12.812686842511209, 40.20885844296866 13.10986736009567 M41.01915140812658 12.158051136245302 C40.83762921381961 12.371277434583732, 40.65610701951264 12.584503732922164, 40.20885844296866 13.10986736009567 M40.20885844296866 13.10986736009567 C39.98689698327041 13.339060790608862, 39.76493552357216 13.568254221122052, 39.33924723676799 14.007812326905684 M40.20885844296866 13.10986736009567 C39.88404318421134 13.4452657825913, 39.559227925454024 13.780664205086929, 39.33924723676799 14.007812326905684 M39.33924723676799 14.007812326905684 C39.03214441472514 14.286714984389596, 38.72504159268229 14.565617641873505, 38.41389120850189 14.848196188198111 M39.33924723676799 14.007812326905684 C39.13819252144415 14.190404899746536, 38.937137806120305 14.372997472587388, 38.41389120850189 14.848196188198111 M38.41389120850189 14.848196188198111 C38.115798422715464 15.085917252280607, 37.817705636929034 15.323638316363104, 37.43659284457871 15.627565626425152 M38.41389120850189 14.848196188198111 C38.06221718689622 15.128646861989884, 37.71054316529055 15.409097535781658, 37.43659284457871 15.627565626425152 M37.43659284457871 15.627565626425152 C37.083751437599524 15.873692517675506, 36.730910030620336 16.11981940892586, 36.41136807360571 16.34271804539089 M37.43659284457871 15.627565626425152 C37.16633199738348 15.816087894025031, 36.89607115018825 16.00461016162491, 36.41136807360571 16.34271804539089 M36.41136807360571 16.34271804539089 C36.1488085807833 16.501883152910676, 35.8862490879609 16.661048260430466, 35.34242976407678 16.990714730406093 M36.41136807360571 16.34271804539089 C36.15985371570001 16.495187527215755, 35.908339357794304 16.647657009040618, 35.34242976407678 16.990714730406093 M35.34242976407678 16.990714730406093 C35.050946605497764 17.142781307532893, 34.759463446918744 17.294847884659696, 34.23417041279239 17.56889292409717 M35.34242976407678 16.990714730406093 C35.10894228299205 17.112524999732134, 34.8754548019073 17.23433526905817, 34.23417041279239 17.56889292409717 M34.23417041279239 17.56889292409717 C33.83939775389738 17.743647069675138, 33.44462509500238 17.918401215253105, 33.091144095147804 18.07487676824742 M34.23417041279239 17.56889292409717 C33.833898405499056 17.746081468078703, 33.43362639820572 17.92327001206024, 33.091144095147804 18.07487676824742 M33.091144095147804 18.07487676824742 C32.71399189620258 18.213672263815972, 32.33683969725735 18.352467759384524, 31.918047751460616 18.506587066708033 M33.091144095147804 18.07487676824742 C32.696190827461436 18.22022322166399, 32.30123755977507 18.365569675080557, 31.918047751460616 18.506587066708033 M31.918047751460616 18.506587066708033 C31.47238751266778 18.638856686263416, 31.026727273874947 18.771126305818804, 30.719701886235413 18.86224982926107 M31.918047751460616 18.506587066708033 C31.60202874613425 18.60037984867129, 31.286009740807877 18.694172630634547, 30.719701886235413 18.86224982926107 M30.719701886235413 18.86224982926107 C30.314541310959125 18.954725086648043, 29.90938073568284 19.047200344035012, 29.501030759676766 19.140403561325773 M30.719701886235413 18.86224982926107 C30.287566756257352 18.9608818527333, 29.855431626279294 19.059513876205532, 29.501030759676766 19.140403561325773 M29.501030759676766 19.140403561325773 C29.024879269461657 19.217384041653798, 28.548727779246548 19.29436452198182, 28.26704215284788 19.3399052695533 M29.501030759676766 19.140403561325773 C29.00881214115951 19.219981650355248, 28.516593522642253 19.29955973938472, 28.26704215284788 19.3399052695533 M28.26704215284788 19.3399052695533 C27.87695257051475 19.377536742409614, 27.48686298818162 19.41516821526593, 27.0228067896239 19.45993515863156 M28.26704215284788 19.3399052695533 C27.791911941877625 19.385740509577918, 27.31678173090737 19.431575749602537, 27.0228067896239 19.45993515863156 M27.0228067896239 19.45993515863156 C26.574349519425652 19.474316310417695, 26.125892249227405 19.488697462203827, 25.773437500000004 19.5 M27.0228067896239 19.45993515863156 C26.72851066695004 19.469372662473056, 26.434214544276177 19.478810166314556, 25.773437500000004 19.5 M25.773437500000004 19.5 C25.773437500000004 19.5, 25.7734375 19.5, 25.7734375 19.5 M25.773437500000004 19.5 C25.773437500000004 19.5, 25.773437500000004 19.5, 25.7734375 19.5 M25.7734375 19.5 C6.793256276299328 19.5, -12.186924947401344 19.5, -25.773437499999996 19.5 M25.7734375 19.5 C10.040729831238725 19.5, -5.6919778375225505 19.5, -25.773437499999996 19.5 M-25.773437499999996 19.5 C-26.262112006067674 19.484329159737634, -26.750786512135353 19.468658319475267, -27.022806789623893 19.45993515863156 M-25.773437499999996 19.5 C-26.133744279866736 19.488445662864276, -26.494051059733476 19.476891325728552, -27.022806789623893 19.45993515863156 M-27.022806789623893 19.45993515863156 C-27.51400681848228 19.412549682602055, -28.005206847340666 19.36516420657255, -28.26704215284787 19.3399052695533 M-27.022806789623893 19.45993515863156 C-27.306622031603116 19.432555843575592, -27.590437273582342 19.405176528519622, -28.26704215284787 19.3399052695533 M-28.26704215284787 19.3399052695533 C-28.629179658162954 19.281357686112255, -28.991317163478037 19.222810102671207, -29.50103075967676 19.140403561325773 M-28.26704215284787 19.3399052695533 C-28.58674276725425 19.28821855353137, -28.90644338166063 19.23653183750944, -29.50103075967676 19.140403561325773 M-29.50103075967676 19.140403561325773 C-29.796201718882187 19.073032716057654, -30.091372678087613 19.005661870789535, -30.719701886235388 18.862249829261074 M-29.50103075967676 19.140403561325773 C-29.98531749158941 19.029868275032978, -30.46960422350206 18.919332988740184, -30.719701886235388 18.862249829261074 M-30.719701886235388 18.862249829261074 C-31.02336822200066 18.772123254783065, -31.32703455776593 18.68199668030506, -31.91804775146059 18.506587066708043 M-30.719701886235388 18.862249829261074 C-31.099246648030974 18.749602936231256, -31.478791409826563 18.636956043201433, -31.91804775146059 18.506587066708043 M-31.91804775146059 18.506587066708043 C-32.28510578599457 18.371506316952264, -32.65216382052855 18.236425567196484, -33.0911440951478 18.074876768247425 M-31.91804775146059 18.506587066708043 C-32.23651502458874 18.389388166317683, -32.55498229771689 18.27218926592732, -33.0911440951478 18.074876768247425 M-33.0911440951478 18.074876768247425 C-33.48229374026273 17.901726423397008, -33.873443385377676 17.72857607854659, -34.23417041279238 17.568892924097174 M-33.0911440951478 18.074876768247425 C-33.45994893679444 17.911617805057375, -33.82875377844109 17.748358841867326, -34.23417041279238 17.568892924097174 M-34.23417041279238 17.568892924097174 C-34.62202440262666 17.36654974603297, -35.00987839246093 17.16420656796877, -35.34242976407678 16.990714730406097 M-34.23417041279238 17.568892924097174 C-34.656213125689874 17.34871351110981, -35.078255838587374 17.128534098122447, -35.34242976407678 16.990714730406097 M-35.34242976407678 16.990714730406097 C-35.73133369535483 16.75495888181216, -36.12023762663288 16.51920303321823, -36.411368073605686 16.3427180453909 M-35.34242976407678 16.990714730406097 C-35.70743605154905 16.769445773925366, -36.07244233902133 16.548176817444638, -36.411368073605686 16.3427180453909 M-36.411368073605686 16.3427180453909 C-36.64482643268482 16.179867600346775, -36.87828479176396 16.01701715530265, -37.43659284457871 15.627565626425156 M-36.411368073605686 16.3427180453909 C-36.73779504318702 16.11501672220673, -37.06422201276835 15.887315399022558, -37.43659284457871 15.627565626425156 M-37.43659284457871 15.627565626425156 C-37.67504910043296 15.437403107968859, -37.91350535628721 15.247240589512561, -38.413891208501866 14.848196188198125 M-37.43659284457871 15.627565626425156 C-37.645395746022444 15.46105086900234, -37.854198647466184 15.294536111579525, -38.413891208501866 14.848196188198125 M-38.413891208501866 14.848196188198125 C-38.77603790757979 14.51930413797214, -39.13818460665772 14.190412087746154, -39.339247236767974 14.007812326905697 M-38.413891208501866 14.848196188198125 C-38.63908987414087 14.643676718494964, -38.86428853977987 14.439157248791801, -39.339247236767974 14.007812326905697 M-39.339247236767974 14.007812326905697 C-39.555328447260834 13.78469073647451, -39.77140965775369 13.561569146043322, -40.208858442968655 13.109867360095677 M-39.339247236767974 14.007812326905697 C-39.60639293398914 13.731962461455199, -39.873538631210316 13.456112596004703, -40.208858442968655 13.109867360095677 M-40.208858442968655 13.109867360095677 C-40.47571365910988 12.796404038724237, -40.7425688752511 12.482940717352797, -41.019151408126575 12.158051136245307 M-40.208858442968655 13.109867360095677 C-40.512922311239834 12.752696638700112, -40.816986179511005 12.395525917304544, -41.019151408126575 12.158051136245307 M-41.019151408126575 12.158051136245307 C-41.18744494435523 11.932553129555467, -41.35573848058389 11.707055122865627, -41.766796464640635 11.156274872382316 M-41.019151408126575 12.158051136245307 C-41.260598402922405 11.83453415949263, -41.502045397718234 11.511017182739952, -41.766796464640635 11.156274872382316 M-41.766796464640635 11.156274872382316 C-41.93047458638142 10.904821323658682, -42.0941527081222 10.65336777493505, -42.44872137860425 10.108655082055249 M-41.766796464640635 11.156274872382316 C-42.025960020613105 10.758130055249586, -42.28512357658557 10.359985238116856, -42.44872137860425 10.108655082055249 M-42.44872137860425 10.108655082055249 C-42.67909812515162 9.69959784038518, -42.90947487169899 9.290540598715113, -43.062123974273504 9.019496659696289 M-42.44872137860425 10.108655082055249 C-42.66141286369378 9.730999812930483, -42.87410434878332 9.353344543805719, -43.062123974273504 9.019496659696289 M-43.062123974273504 9.019496659696289 C-43.21928712466116 8.693144015163604, -43.37645027504882 8.366791370630917, -43.60448364880834 7.893275190886686 M-43.062123974273504 9.019496659696289 C-43.21246814683983 8.707303768512348, -43.36281231940615 8.395110877328408, -43.60448364880834 7.893275190886686 M-43.60448364880834 7.893275190886686 C-43.746185446523484 7.543269010912392, -43.887887244238634 7.1932628309380995, -44.073571729970325 6.73461856121551 M-43.60448364880834 7.893275190886686 C-43.73226638154784 7.577649370509063, -43.860049114287335 7.262023550131439, -44.073571729970325 6.73461856121551 M-44.073571729970325 6.73461856121551 C-44.16968355698197 6.445145051596472, -44.26579538399362 6.155671541977435, -44.46746063421488 5.5482879393051325 M-44.073571729970325 6.73461856121551 C-44.152693574991716 6.4963161703651044, -44.231815420013106 6.258013779514698, -44.46746063421488 5.5482879393051325 M-44.46746063421488 5.5482879393051325 C-44.57851792012333 5.124778375604025, -44.68957520603178 4.701268811902918, -44.78453178754556 4.339158212148136 M-44.46746063421488 5.5482879393051325 C-44.553367129872505 5.22068923925187, -44.63927362553013 4.8930905391986075, -44.78453178754556 4.339158212148136 M-44.78453178754556 4.339158212148136 C-44.83967362858557 4.056016512639896, -44.894815469625584 3.772874813131657, -45.023482276581774 3.112197953150904 M-44.78453178754556 4.339158212148136 C-44.86562055009145 3.9227845545910314, -44.94670931263734 3.506410897033927, -45.023482276581774 3.112197953150904 M-45.023482276581774 3.112197953150904 C-45.08592363978373 2.627915070598386, -45.148365002985685 2.1436321880458675, -45.18333020250937 1.872449005199809 M-45.023482276581774 3.112197953150904 C-45.08330486802146 2.6482257472515727, -45.14312745946115 2.1842535413522413, -45.18333020250937 1.872449005199809 M-45.18333020250937 1.872449005199809 C-45.2150648089052 1.3781568948714842, -45.246799415301034 0.8838647845431592, -45.26341871591342 0.6250057626472781 M-45.18333020250937 1.872449005199809 C-45.20372612663817 1.5547660236000274, -45.22412205076698 1.2370830420002457, -45.26341871591342 0.6250057626472781 M-45.26341871591342 0.6250057626472781 C-45.26341871591342 0.22574429466206747, -45.26341871591342 -0.1735171733231432, -45.26341871591342 -0.6250057626472687 M-45.26341871591342 0.6250057626472781 C-45.26341871591342 0.24059288633985676, -45.26341871591342 -0.14381998996756462, -45.26341871591342 -0.6250057626472687 M-45.26341871591342 -0.6250057626472687 C-45.24220513124954 -0.955424467084495, -45.220991546585665 -1.2858431715217213, -45.18333020250937 -1.8724490051997822 M-45.26341871591342 -0.6250057626472687 C-45.244702137242896 -0.9165315831910248, -45.225985558572376 -1.2080574037347809, -45.18333020250937 -1.8724490051997822 M-45.18333020250937 -1.8724490051997822 C-45.14753555975722 -2.1500651859336983, -45.11174091700508 -2.4276813666676147, -45.023482276581774 -3.112197953150895 M-45.18333020250937 -1.8724490051997822 C-45.135618091498685 -2.2424947163766356, -45.087905980488 -2.6125404275534887, -45.023482276581774 -3.112197953150895 M-45.023482276581774 -3.112197953150895 C-44.962755962892416 -3.424014739434825, -44.90202964920305 -3.735831525718755, -44.78453178754556 -4.339158212148126 M-45.023482276581774 -3.112197953150895 C-44.928725626340906 -3.5987533253126385, -44.83396897610004 -4.085308697474382, -44.78453178754556 -4.339158212148126 M-44.78453178754556 -4.339158212148126 C-44.658277352934434 -4.820621090338459, -44.53202291832331 -5.302083968528792, -44.46746063421489 -5.548287939305123 M-44.78453178754556 -4.339158212148126 C-44.7149086367253 -4.604661461090225, -44.64528548590504 -4.8701647100323235, -44.46746063421489 -5.548287939305123 M-44.46746063421489 -5.548287939305123 C-44.32030033327684 -5.991511318920699, -44.17314003233879 -6.434734698536276, -44.07357172997033 -6.734618561215485 M-44.46746063421489 -5.548287939305123 C-44.380193041062824 -5.811124025676403, -44.292925447910754 -6.073960112047683, -44.07357172997033 -6.734618561215485 M-44.07357172997033 -6.734618561215485 C-43.963879306845406 -7.005560967092777, -43.85418688372048 -7.276503372970071, -43.60448364880834 -7.893275190886676 M-44.07357172997033 -6.734618561215485 C-43.90462877477915 -7.151910926827547, -43.735685819587964 -7.569203292439609, -43.60448364880834 -7.893275190886676 M-43.60448364880834 -7.893275190886676 C-43.400737381131634 -8.316358675189113, -43.19699111345493 -8.73944215949155, -43.062123974273504 -9.019496659696282 M-43.60448364880834 -7.893275190886676 C-43.41966421570307 -8.27705669823214, -43.234844782597804 -8.660838205577607, -43.062123974273504 -9.019496659696282 M-43.062123974273504 -9.019496659696282 C-42.84462919578604 -9.405680662635262, -42.627134417298585 -9.791864665574241, -42.44872137860425 -10.108655082055243 M-43.062123974273504 -9.019496659696282 C-42.8653216723747 -9.368939075111644, -42.668519370475885 -9.718381490527007, -42.44872137860425 -10.108655082055243 M-42.44872137860425 -10.108655082055243 C-42.27535763167414 -10.374988352024205, -42.10199388474404 -10.641321621993168, -41.76679646464064 -11.156274872382308 M-42.44872137860425 -10.108655082055243 C-42.28250890039307 -10.364002082887408, -42.11629642218189 -10.619349083719571, -41.76679646464064 -11.156274872382308 M-41.76679646464064 -11.156274872382308 C-41.58335973741409 -11.402063375436251, -41.39992301018754 -11.647851878490194, -41.01915140812659 -12.158051136245302 M-41.76679646464064 -11.156274872382308 C-41.61551538609036 -11.358977735649907, -41.46423430754008 -11.561680598917505, -41.01915140812659 -12.158051136245302 M-41.01915140812659 -12.158051136245302 C-40.75077739345909 -12.473298524787786, -40.48240337879159 -12.78854591333027, -40.20885844296866 -13.10986736009567 M-41.01915140812659 -12.158051136245302 C-40.697918245511005 -12.535389887738335, -40.37668508289541 -12.912728639231368, -40.20885844296866 -13.10986736009567 M-40.20885844296866 -13.10986736009567 C-39.94034334402613 -13.387131245253444, -39.6718282450836 -13.66439513041122, -39.339247236767996 -14.007812326905677 M-40.20885844296866 -13.10986736009567 C-40.02945185119437 -13.295119395657743, -39.85004525942008 -13.480371431219815, -39.339247236767996 -14.007812326905677 M-39.339247236767996 -14.007812326905677 C-39.091639927961545 -14.232682733433307, -38.844032619155094 -14.457553139960938, -38.41389120850189 -14.848196188198107 M-39.339247236767996 -14.007812326905677 C-39.1405846256574 -14.188232453991672, -38.9419220145468 -14.368652581077665, -38.41389120850189 -14.848196188198107 M-38.41389120850189 -14.848196188198107 C-38.07220679323455 -15.120680416769654, -37.73052237796721 -15.393164645341201, -37.43659284457872 -15.627565626425149 M-38.41389120850189 -14.848196188198107 C-38.1998705613026 -15.018871959010925, -37.98584991410332 -15.189547729823744, -37.43659284457872 -15.627565626425149 M-37.43659284457872 -15.627565626425149 C-37.09150131731609 -15.868286537072118, -36.746409790053455 -16.109007447719087, -36.411368073605715 -16.342718045390885 M-37.43659284457872 -15.627565626425149 C-37.083623939139926 -15.8737814550816, -36.73065503370114 -16.11999728373805, -36.411368073605715 -16.342718045390885 M-36.411368073605715 -16.342718045390885 C-36.03051481488919 -16.57359352896702, -35.64966155617266 -16.804469012543155, -35.34242976407679 -16.99071473040609 M-36.411368073605715 -16.342718045390885 C-36.06436213349115 -16.553075085521588, -35.717356193376595 -16.763432125652287, -35.34242976407679 -16.99071473040609 M-35.34242976407679 -16.99071473040609 C-34.98411708564428 -17.17764622523411, -34.62580440721176 -17.364577720062126, -34.23417041279239 -17.56889292409717 M-35.34242976407679 -16.99071473040609 C-35.114886465046006 -17.109423923762012, -34.88734316601522 -17.228133117117935, -34.23417041279239 -17.56889292409717 M-34.23417041279239 -17.56889292409717 C-33.83111831851536 -17.747312130118036, -33.42806622423833 -17.925731336138902, -33.091144095147804 -18.07487676824742 M-34.23417041279239 -17.56889292409717 C-33.95420304776665 -17.69282617165726, -33.6742356827409 -17.816759419217348, -33.091144095147804 -18.07487676824742 M-33.091144095147804 -18.07487676824742 C-32.786317316333204 -18.187055840639047, -32.4814905375186 -18.299234913030677, -31.91804775146062 -18.506587066708033 M-33.091144095147804 -18.07487676824742 C-32.81904110431943 -18.175013184164737, -32.546938113491066 -18.27514960008205, -31.91804775146062 -18.506587066708033 M-31.91804775146062 -18.506587066708033 C-31.584478997408645 -18.60558852197254, -31.25091024335667 -18.704589977237045, -30.719701886235413 -18.862249829261067 M-31.91804775146062 -18.506587066708033 C-31.5669652676176 -18.610786505043077, -31.215882783774585 -18.71498594337812, -30.719701886235413 -18.862249829261067 M-30.719701886235413 -18.862249829261067 C-30.36354494330483 -18.94354032734372, -30.00738800037425 -19.024830825426367, -29.501030759676766 -19.140403561325773 M-30.719701886235413 -18.862249829261067 C-30.38078649144603 -18.939605056492105, -30.041871096656653 -19.016960283723144, -29.501030759676766 -19.140403561325773 M-29.501030759676766 -19.140403561325773 C-29.035760154211108 -19.215624904590026, -28.570489548745453 -19.29084624785428, -28.267042152847882 -19.3399052695533 M-29.501030759676766 -19.140403561325773 C-29.171248981255843 -19.19372012176498, -28.841467202834924 -19.247036682204186, -28.267042152847882 -19.3399052695533 M-28.267042152847882 -19.3399052695533 C-27.829661513866103 -19.382098853768692, -27.392280874884328 -19.424292437984086, -27.022806789623903 -19.45993515863156 M-28.267042152847882 -19.3399052695533 C-27.90005226269746 -19.375308342886193, -27.533062372547043 -19.410711416219087, -27.022806789623903 -19.45993515863156 M-27.022806789623903 -19.45993515863156 C-26.61498168695641 -19.4730133158907, -26.207156584288914 -19.486091473149838, -25.773437500000007 -19.5 M-27.022806789623903 -19.45993515863156 C-26.61679319795217 -19.472955224258957, -26.210779606280433 -19.485975289886355, -25.773437500000007 -19.5 M-25.773437500000007 -19.5 C-25.773437500000004 -19.5, -25.773437500000004 -19.5, -25.7734375 -19.5 M-25.773437500000007 -19.5 C-25.773437500000004 -19.5, -25.773437500000004 -19.5, -25.7734375 -19.5" stroke="#ccc" stroke-width="1.3" fill="none" stroke-dasharray="0 0" style=""/></g><g class="label" style="" transform="translate(-32.8984375, -12)"><rect/><foreignObject width="65.796875" height="24"><div xmlns="http://www.w3.org/1999/xhtml" style="display: table-cell; white-space: nowrap; line-height: 1.5; max-width: 200px; text-align: center;"><span class="nodeLabel"><p>PDF siap</p></span></div></foreignObject></g></g></g></g></g><defs><filter id="my-svg-drop-shadow" height="130%" width="130%"><feDropShadow dx="4" dy="4" stdDeviation="0" flood-opacity="0.06" flood-color="#FFFFFF"/></filter></defs><defs><filter id="my-svg-drop-shadow-small" height="150%" width="150%"><feDropShadow dx="2" dy="2" stdDeviation="0" flood-opacity="0.06" flood-color="#FFFFFF"/></filter></defs><linearGradient id="my-svg-gradient" gradientUnits="objectBoundingBox" x1="0%" y1="0%" x2="100%" y2="0%"><stop offset="0%" stop-color="#cccccc" stop-opacity="1"/><stop offset="100%" stop-color="hsl(180, 0%, 18.3529411765%)" stop-opacity="1"/></linearGradient></svg>